<svg xmlns="http://www.w3.org/2000/svg" viewBox="0 0 512 512" width="512" height="512" role="img" aria-labelledby="favicon-title favicon-desc">
  <title id="favicon-title">OverstepLab Android Chrome 512</title>
  <desc id="favicon-desc">OverstepLab Android PWA图标 512x512</desc>

  <defs>
    <linearGradient id="grad-primary" x1="0%" y1="0%" x2="100%" y2="100%">
      <stop offset="0%" style="stop-color:#4f46e5;stop-opacity:1" />
      <stop offset="100%" style="stop-color:#818cf8;stop-opacity:1" />
    </linearGradient>
    <linearGradient id="grad-breakthrough" x1="0%" y1="100%" x2="100%" y2="0%">
      <stop offset="0%" style="stop-color:#818cf8;stop-opacity:1" />
      <stop offset="100%" style="stop-color:#c7d2fe;stop-opacity:0.8" />
    </linearGradient>
    <filter id="glow" x="-20%" y="-20%" width="140%" height="140%">
      <feGaussianBlur stdDeviation="6" result="blur" />
      <feComposite in="SourceGraphic" in2="blur" operator="over" />
    </filter>
  </defs>

  <rect width="512" height="512" fill="#0a0a0a" rx="102" />
  <path d="M256 48 L448 160 L448 352 L256 464 L64 352 L64 160 Z" fill="none" stroke="url(#grad-primary)" stroke-width="10" stroke-linejoin="round" filter="url(#glow)" />
  <path d="M256 96 L400 184 L400 328 L256 416 L112 328 L112 184 Z" fill="none" stroke="#4f46e5" stroke-width="5" stroke-linejoin="round" opacity="0.6" />
  <path d="M256 144 L352 200 L352 312 L256 368 L160 312 L160 200 Z" fill="none" stroke="#6366f1" stroke-width="4" stroke-linejoin="round" opacity="0.4" />
  <path d="M180 340 L340 180" stroke="url(#grad-breakthrough)" stroke-width="14" stroke-linecap="round" filter="url(#glow)" />
  <path d="M180 340 L340 180" stroke="#c7d2fe" stroke-width="4" stroke-linecap="round" opacity="0.8" />
  <g transform="translate(256, 260)">
    <rect x="-28" y="-8" width="56" height="44" rx="8" fill="none" stroke="#818cf8" stroke-width="5" />
    <path d="M-20 -8 L-20 -28 A20 20 0 0 1 20 -28 L20 -8" fill="none" stroke="#818cf8" stroke-width="5" stroke-linecap="round" />
    <circle cx="0" cy="14" r="6" fill="#a5b4fc" />
    <rect x="-3" y="14" width="6" height="12" rx="2" fill="#a5b4fc" />
  </g>
  <circle cx="256" cy="48" r="5" fill="#818cf8" opacity="0.8" />
  <circle cx="256" cy="464" r="5" fill="#818cf8" opacity="0.8" />
</svg>
