<svg xmlns="http://www.w3.org/2000/svg" viewBox="0 0 192 192" width="192" height="192" role="img" aria-labelledby="favicon-title favicon-desc">
  <title id="favicon-title">OverstepLab Android Chrome 192</title>
  <desc id="favicon-desc">OverstepLab Android主屏图标 192x192</desc>

  <defs>
    <linearGradient id="grad-primary" x1="0%" y1="0%" x2="100%" y2="100%">
      <stop offset="0%" style="stop-color:#4f46e5;stop-opacity:1" />
      <stop offset="100%" style="stop-color:#818cf8;stop-opacity:1" />
    </linearGradient>
    <linearGradient id="grad-breakthrough" x1="0%" y1="100%" x2="100%" y2="0%">
      <stop offset="0%" style="stop-color:#818cf8;stop-opacity:1" />
      <stop offset="100%" style="stop-color:#c7d2fe;stop-opacity:0.8" />
    </linearGradient>
    <filter id="glow-small" x="-20%" y="-20%" width="140%" height="140%">
      <feGaussianBlur stdDeviation="2" result="blur" />
      <feComposite in="SourceGraphic" in2="blur" operator="over" />
    </filter>
  </defs>

  <rect width="192" height="192" fill="#0a0a0a" rx="38" />
  <path d="M96 20 L172 64 L172 128 L96 172 L20 128 L20 64 Z" fill="none" stroke="url(#grad-primary)" stroke-width="4" stroke-linejoin="round" filter="url(#glow-small)" />
  <path d="M96 40 L154 74 L154 118 L96 152 L38 118 L38 74 Z" fill="none" stroke="#4f46e5" stroke-width="2.5" stroke-linejoin="round" opacity="0.6" />
  <path d="M96 60 L134 82 L134 110 L96 132 L58 110 L58 82 Z" fill="none" stroke="#6366f1" stroke-width="2" stroke-linejoin="round" opacity="0.4" />
  <path d="M64 128 L128 64" stroke="url(#grad-breakthrough)" stroke-width="6" stroke-linecap="round" filter="url(#glow-small)" />
  <path d="M64 128 L128 64" stroke="#c7d2fe" stroke-width="2" stroke-linecap="round" opacity="0.8" />
  <g transform="translate(96, 98)">
    <rect x="-14" y="-4" width="28" height="22" rx="4" fill="none" stroke="#818cf8" stroke-width="3" />
    <path d="M-10 -4 L-10 -14 A10 10 0 0 1 10 -14 L10 -4" fill="none" stroke="#818cf8" stroke-width="3" stroke-linecap="round" />
    <circle cx="0" cy="7" r="3" fill="#a5b4fc" />
    <rect x="-1.5" y="7" width="3" height="6" rx="1" fill="#a5b4fc" />
  </g>
  <circle cx="96" cy="20" r="2.5" fill="#818cf8" opacity="0.8" />
  <circle cx="96" cy="172" r="2.5" fill="#818cf8" opacity="0.8" />
</svg>
